<?xml version="1.0" standalone="no"?>
<!DOCTYPE svg PUBLIC "-//W3C//DTD SVG 20010904//EN"
 "http://www.w3.org/TR/2001/REC-SVG-20010904/DTD/svg10.dtd">
<svg version="1.0" xmlns="http://www.w3.org/2000/svg"
 width="225.000000pt" height="225.000000pt" viewBox="0 0 225.000000 225.000000"
 preserveAspectRatio="xMidYMid meet">

<g transform="translate(0.000000,225.000000) scale(0.100000,-0.100000)"
fill="#000000" stroke="none">
<path d="M1041 1708 c-81 -11 -166 -39 -230 -78 -49 -28 -52 -29 -79 -13 -45
26 -95 11 -160 -50 -103 -97 -172 -235 -158 -313 4 -18 23 -55 43 -80 l35 -47
-37 -69 c-20 -38 -37 -84 -38 -102 -2 -81 52 -130 138 -125 43 3 44 2 89 -58
76 -103 198 -185 323 -218 71 -19 221 -19 290 -1 183 49 332 177 400 346 25
63 31 70 56 70 37 0 88 22 111 49 28 31 27 101 -2 141 -23 30 -23 33 -8 77 21
62 20 111 -4 151 -11 18 -20 48 -20 68 0 52 -45 94 -100 94 -34 0 -46 -6 -73
-35 l-32 -34 -64 75 c-39 45 -74 77 -90 80 -14 3 -45 15 -67 25 -82 38 -228
59 -323 47z m247 -68 c34 -12 62 -26 62 -30 0 -19 -20 -19 -76 0 -130 45 -275
33 -401 -34 -37 -20 -69 -34 -71 -31 -22 21 77 79 188 110 74 20 214 13 298
-15z m154 -67 c23 -21 23 -45 -2 -91 -26 -48 -41 -67 -62 -75 -27 -10 -22 17
12 65 17 22 30 49 30 59 0 13 5 17 18 12 13 -5 14 -3 6 7 -17 18 -52 3 -69
-29 -7 -15 -17 -52 -21 -82 -4 -30 -15 -70 -25 -89 -11 -19 -19 -42 -19 -50 0
-8 9 4 19 26 22 48 54 74 92 74 34 0 53 -23 53 -65 0 -37 -32 -94 -43 -76 -4
6 -5 -17 -3 -51 3 -40 10 -68 20 -78 14 -13 15 -13 5 0 -8 11 -6 22 7 43 l17
28 6 -28 c7 -34 -16 -63 -50 -63 -28 0 -43 32 -43 95 0 24 -4 47 -10 50 -6 4
-7 -1 -4 -12 4 -14 2 -13 -14 4 l-20 23 -12 -73 c-14 -92 -16 -97 -35 -97 -19
0 -19 -2 5 205 23 200 32 237 67 265 31 24 51 25 75 3z m-722 -14 c7 -11 9
-32 5 -46 -5 -23 -4 -25 17 -19 105 30 185 27 289 -9 75 -27 120 -20 193 29
63 42 91 48 44 9 -13 -10 -28 -27 -34 -37 -5 -11 -26 -28 -45 -38 -42 -23
-100 -20 -218 12 -91 24 -140 23 -221 -6 -42 -15 -48 -22 -77 -86 -28 -60 -35
-69 -55 -66 -31 4 -34 43 -8 87 29 46 37 31 12 -21 -12 -23 -19 -44 -17 -46
10 -11 85 182 85 218 0 24 -18 36 -33 21 -9 -9 -8 -11 6 -6 9 4 17 5 17 3 0
-2 -29 -33 -64 -70 -64 -67 -116 -156 -116 -200 0 -27 37 -82 70 -105 19 -14
23 -12 43 14 110 141 163 182 161 123 -1 -14 -4 -34 -9 -45 -5 -14 -2 -13 10
5 54 76 89 96 115 65 11 -13 8 -31 -13 -103 -36 -121 -41 -149 -26 -158 7 -4
10 -3 5 4 -3 6 1 27 11 47 l17 37 8 -29 c14 -52 -50 -107 -78 -68 -15 20 -11
47 18 150 22 77 34 98 52 88 7 -4 6 -1 -1 7 -10 11 -16 10 -34 -6 -32 -29 -79
-129 -93 -198 -8 -40 -18 -61 -27 -61 -18 0 -15 69 7 179 11 54 13 81 5 89 -7
7 -8 4 -5 -9 4 -14 -14 -44 -56 -97 l-62 -77 37 -42 c57 -67 59 -117 7 -165
-60 -57 -137 -69 -179 -27 -38 38 -31 62 59 197 4 7 12 6 22 -2 15 -12 14 -17
-7 -45 -40 -51 -59 -95 -51 -118 5 -17 3 -20 -10 -15 -10 4 -15 3 -11 -3 15
-25 109 1 152 42 42 39 31 68 -57 154 -130 127 -140 155 -94 254 69 149 200
254 234 189z m1018 -127 c2 -34 9 -55 22 -67 26 -23 25 -60 -1 -129 l-22 -55
32 -36 c36 -41 39 -63 12 -96 -18 -22 -26 -23 -287 -36 -298 -14 -489 -34
-607 -63 -43 -11 -81 -19 -85 -18 -4 1 -23 -6 -42 -15 -19 -8 -39 -12 -45 -9
-5 3 7 13 27 22 19 8 42 21 49 27 55 45 350 83 779 99 173 6 211 13 209 37 0
9 -2 9 -6 0 -6 -17 -73 63 -73 87 0 10 9 37 20 61 32 71 27 94 -25 131 -64 45
-75 100 -25 125 40 20 64 -3 68 -65z m-188 11 c0 -22 -27 -15 -44 12 -24 36
-10 52 20 24 13 -12 24 -28 24 -36z m75 -58 c30 -29 30 -38 6 -91 -28 -61 -91
-99 -91 -55 0 11 9 22 19 26 23 7 53 68 49 98 -3 21 -4 21 -35 -9 -63 -61 -54
-228 11 -223 6 0 5 3 -2 6 -9 3 -4 15 17 38 16 18 42 65 57 104 27 67 47 87
57 59 5 -17 -26 -97 -57 -147 -81 -127 -175 -94 -162 57 6 75 29 128 65 147
35 19 38 19 66 -10z m-355 -13 c0 -9 -10 -60 -22 -114 -18 -78 -19 -101 -10
-120 10 -18 11 -19 8 -3 -3 11 3 36 14 55 l18 35 -5 -45 c-3 -25 -10 -53 -15
-62 -11 -22 -44 -23 -56 -3 -7 14 -11 13 -27 -5 -23 -26 -47 -25 -71 1 -28 31
-24 131 9 203 29 62 58 84 93 68 17 -8 25 -8 34 3 15 18 30 11 30 -13z m-205
-16 c13 -20 14 -32 5 -65 -11 -43 -56 -95 -89 -104 -37 -9 -34 14 8 52 23 21
41 45 41 54 0 8 7 23 16 31 14 15 13 16 -15 16 -40 0 -67 -36 -82 -108 -14
-69 3 -135 36 -139 l20 -3 -20 9 c-11 5 -14 10 -7 10 6 1 30 20 52 42 l40 41
0 -30 c0 -53 -84 -107 -129 -83 -62 34 -42 215 31 276 38 32 73 32 93 1z m530
-473 c-136 -276 -487 -381 -755 -225 -89 51 -209 186 -186 209 4 4 17 -3 27
-17 67 -85 95 -112 150 -149 151 -101 340 -112 505 -31 105 51 178 123 234
231 30 57 45 78 53 70 7 -7 -1 -33 -28 -88z m-330 41 c-42 -34 -128 -58 -182
-50 -53 7 -106 33 -100 49 5 14 5 13 67 -8 58 -21 125 -12 182 25 53 34 79 22
33 -16z m118 39 c4 -3 0 -14 -8 -23 -14 -15 -13 -19 3 -34 17 -15 20 -15 32
-1 17 21 26 19 66 -11 34 -26 34 -26 17 -55 -17 -28 -33 -36 -46 -22 -4 3 0
14 9 24 14 16 14 18 -6 29 -17 9 -25 9 -39 -4 -15 -13 -20 -12 -56 19 l-40 33
24 26 c26 27 33 30 44 19z m-459 -59 c14 -5 13 -9 -4 -34 -11 -15 -20 -33 -20
-39 0 -21 19 -11 37 19 19 33 31 38 39 15 5 -11 -49 -100 -93 -154 -2 -3 -8 0
-15 7 -8 8 -7 17 6 36 9 14 16 30 16 36 0 20 -19 10 -36 -19 -16 -27 -44 -33
-44 -9 0 8 91 147 97 148 1 0 8 -3 17 -6z m423 -86 c45 -79 44 -86 -8 -114
l-27 -14 -48 82 c-26 45 -42 84 -37 85 6 2 19 10 29 18 34 26 49 17 91 -57z
m-279 22 c6 0 12 -7 12 -15 0 -9 -9 -15 -25 -15 -20 0 -25 -5 -25 -25 0 -14 5
-25 10 -25 6 0 10 -7 10 -16 0 -10 -6 -14 -14 -11 -8 3 -17 -1 -20 -9 -10 -25
-7 -34 9 -34 8 0 15 -7 15 -15 0 -17 -36 -20 -59 -6 -11 7 -12 17 -2 57 32
128 31 126 54 120 12 -3 28 -6 35 -6z m132 -92 c26 -83 27 -88 9 -88 -10 0
-19 5 -19 10 0 6 -7 10 -15 10 -8 0 -15 -7 -15 -15 0 -9 -9 -15 -21 -15 -18 0
-20 4 -15 38 3 20 5 63 6 95 0 53 2 58 21 55 17 -2 26 -21 49 -90z"/>
<path d="M1386 1345 c-39 -42 -39 -60 2 -60 28 0 37 5 44 24 5 14 6 31 3 39
-3 10 0 12 10 8 8 -3 15 -1 15 4 0 20 -52 9 -74 -15z"/>
<path d="M1687 1473 c-14 -13 -6 -40 15 -59 13 -10 18 -12 12 -4 -6 8 -11 25
-12 37 0 16 4 20 16 16 15 -4 15 -3 2 6 -18 13 -24 13 -33 4z"/>
<path d="M1168 1332 c-23 -27 -37 -69 -44 -125 -5 -45 -3 -56 16 -77 12 -14
19 -20 16 -13 -7 13 27 76 36 68 3 -3 8 23 11 57 4 35 9 72 12 83 8 26 -27 31
-47 7z"/>
<path d="M1289 798 c17 -29 38 -55 47 -57 13 -2 10 8 -14 50 -17 30 -38 56
-47 57 -13 3 -10 -8 14 -50z"/>
<path d="M1160 732 c0 -18 5 -32 10 -32 6 0 8 11 4 28 -10 39 -14 40 -14 4z"/>
</g>
</svg>
